<svg width="38" height="29" viewBox="0 0 38 29" fill="none" xmlns="http://www.w3.org/2000/svg">
<path d="M11.9175 7.61621C11.7856 8.74414 11.3682 9.61572 10.665 10.231C9.9668 10.8413 9.03662 11.1465 7.87451 11.1465C6.61475 11.1465 5.604 10.6948 4.84229 9.7915C4.08545 8.88818 3.70703 7.67969 3.70703 6.16602V5.14062C3.70703 4.14941 3.88281 3.27783 4.23438 2.52588C4.59082 1.77393 5.09375 1.19775 5.74316 0.797363C6.39258 0.39209 7.14453 0.189453 7.99902 0.189453C9.13184 0.189453 10.04 0.506836 10.7236 1.1416C11.4072 1.77148 11.8052 2.64551 11.9175 3.76367H10.5039C10.3818 2.91406 10.1157 2.29883 9.70557 1.91797C9.30029 1.53711 8.73145 1.34668 7.99902 1.34668C7.10059 1.34668 6.39502 1.67871 5.88232 2.34277C5.37451 3.00684 5.12061 3.95166 5.12061 5.17725V6.20996C5.12061 7.36719 5.3623 8.2876 5.8457 8.97119C6.3291 9.65479 7.00537 9.99658 7.87451 9.99658C8.65576 9.99658 9.25391 9.8208 9.66895 9.46924C10.0889 9.11279 10.3672 8.49512 10.5039 7.61621H11.9175ZM15.6602 0.335938L19.1465 9.03711L22.6328 0.335938H24.4565V11H23.0503V6.84717L23.1821 2.36475L19.6812 11H18.6045L15.1108 2.38672L15.25 6.84717V11H13.8438V0.335938H15.6602ZM28.3457 6.8252V11H26.9395V0.335938H30.8726C32.0396 0.335938 32.9526 0.633789 33.6118 1.22949C34.2759 1.8252 34.6079 2.61377 34.6079 3.59521C34.6079 4.63037 34.2832 5.42871 33.6338 5.99023C32.9893 6.54688 32.064 6.8252 30.8579 6.8252H28.3457ZM28.3457 5.67529H30.8726C31.6245 5.67529 32.2007 5.49951 32.6011 5.14795C33.0015 4.7915 33.2017 4.27881 33.2017 3.60986C33.2017 2.9751 33.0015 2.46729 32.6011 2.08643C32.2007 1.70557 31.6514 1.50781 30.9531 1.49316H28.3457V5.67529ZM3.50537 21.8804C2.46012 21.5799 1.6984 21.2118 1.22021 20.7759C0.746257 20.3358 0.509277 19.7941 0.509277 19.1509C0.509277 18.423 0.799154 17.8221 1.37891 17.3481C1.96289 16.87 2.72038 16.6309 3.65137 16.6309C4.28613 16.6309 4.85107 16.7536 5.34619 16.999C5.84554 17.2445 6.23063 17.583 6.50146 18.0146C6.77653 18.4463 6.91406 18.9181 6.91406 19.4302H5.68896C5.68896 18.8716 5.51123 18.4336 5.15576 18.1162C4.80029 17.7946 4.29883 17.6338 3.65137 17.6338C3.05046 17.6338 2.58073 17.7671 2.24219 18.0337C1.90788 18.2961 1.74072 18.6621 1.74072 19.1318C1.74072 19.5085 1.89941 19.828 2.2168 20.0903C2.53841 20.3485 3.08219 20.5854 3.84814 20.8013C4.61833 21.0171 5.21924 21.2562 5.65088 21.5186C6.08675 21.7767 6.40837 22.0793 6.61572 22.4263C6.82731 22.7733 6.93311 23.1816 6.93311 23.6514C6.93311 24.4004 6.64111 25.0013 6.05713 25.4541C5.47314 25.9027 4.69238 26.127 3.71484 26.127C3.08008 26.127 2.48763 26.0063 1.9375 25.7651C1.38737 25.5197 0.962077 25.1854 0.661621 24.7622C0.365397 24.339 0.217285 23.8587 0.217285 23.3213H1.44238C1.44238 23.8799 1.64762 24.3221 2.05811 24.6479C2.47282 24.9696 3.02507 25.1304 3.71484 25.1304C4.35807 25.1304 4.85107 24.9992 5.19385 24.7368C5.53662 24.4744 5.70801 24.1169 5.70801 23.6641C5.70801 23.2113 5.54932 22.8621 5.23193 22.6167C4.91455 22.367 4.33903 22.1216 3.50537 21.8804ZM12.5571 25.3208C12.1001 25.8582 11.4294 26.127 10.5449 26.127C9.81283 26.127 9.25423 25.9154 8.86914 25.4922C8.48828 25.0648 8.29574 24.4342 8.2915 23.6006V19.1318H9.46582V23.5688C9.46582 24.6099 9.889 25.1304 10.7354 25.1304C11.6325 25.1304 12.2292 24.7961 12.5254 24.1274V19.1318H13.6997V26H12.5825L12.5571 25.3208ZM21.2915 22.6421C21.2915 23.6873 21.0524 24.5295 20.5742 25.1685C20.096 25.8075 19.4486 26.127 18.6318 26.127C17.7982 26.127 17.1423 25.8625 16.6641 25.3335V28.6406H15.4897V19.1318H16.5625L16.6196 19.8936C17.0978 19.3011 17.7622 19.0049 18.6128 19.0049C19.438 19.0049 20.0897 19.3159 20.5679 19.938C21.0503 20.5601 21.2915 21.4255 21.2915 22.5342V22.6421ZM20.1172 22.5088C20.1172 21.7344 19.9521 21.1229 19.6221 20.6743C19.292 20.2257 18.8392 20.0015 18.2637 20.0015C17.5527 20.0015 17.0195 20.3167 16.6641 20.9473V24.229C17.0153 24.8553 17.5527 25.1685 18.2764 25.1685C18.8392 25.1685 19.2856 24.9463 19.6157 24.502C19.95 24.0534 20.1172 23.389 20.1172 22.5088ZM22.4785 22.5024C22.4785 21.8296 22.6097 21.2244 22.8721 20.687C23.1387 20.1496 23.5068 19.7349 23.9766 19.4429C24.4505 19.1509 24.9901 19.0049 25.5952 19.0049C26.5304 19.0049 27.2858 19.3286 27.8613 19.9761C28.4411 20.6235 28.731 21.4847 28.731 22.5596V22.6421C28.731 23.3107 28.6019 23.9116 28.3438 24.4448C28.0898 24.9738 27.7238 25.3864 27.2456 25.6826C26.7716 25.9788 26.2257 26.127 25.6079 26.127C24.6769 26.127 23.9215 25.8032 23.3418 25.1558C22.7663 24.5083 22.4785 23.6514 22.4785 22.585V22.5024ZM23.6592 22.6421C23.6592 23.4038 23.8348 24.0153 24.186 24.4766C24.5415 24.9378 25.0155 25.1685 25.6079 25.1685C26.2046 25.1685 26.6785 24.9357 27.0298 24.4702C27.381 24.0005 27.5566 23.3446 27.5566 22.5024C27.5566 21.7492 27.3768 21.1398 27.0171 20.6743C26.6616 20.2046 26.1877 19.9697 25.5952 19.9697C25.0155 19.9697 24.5479 20.2004 24.1924 20.6616C23.8369 21.1229 23.6592 21.783 23.6592 22.6421ZM33.5234 20.1855C33.3457 20.1559 33.1532 20.1411 32.9458 20.1411C32.1756 20.1411 31.653 20.4691 31.3779 21.125V26H30.2036V19.1318H31.3462L31.3652 19.9253C31.7503 19.3117 32.2962 19.0049 33.0029 19.0049C33.2314 19.0049 33.4049 19.0345 33.5234 19.0938V20.1855ZM36.5195 17.4688V19.1318H37.8018V20.0396H36.5195V24.2988C36.5195 24.5739 36.5767 24.7812 36.6909 24.9209C36.8052 25.0563 36.9998 25.124 37.2749 25.124C37.4103 25.124 37.5965 25.0986 37.8335 25.0479V26C37.5246 26.0846 37.2241 26.127 36.9321 26.127C36.4074 26.127 36.0117 25.9683 35.7451 25.6509C35.4785 25.3335 35.3452 24.8828 35.3452 24.2988V20.0396H34.0947V19.1318H35.3452V17.4688H36.5195Z" fill="black"/>
</svg>
